<svg xmlns="http://www.w3.org/2000/svg" viewBox="0 0 153 40" fill="none"><g clip-path="url(#clip0_1_1098)"><path d="M113.468 29.4736H109.344V33.6842H113.468V29.4736Z" fill="#333333"/><path d="M121.951 14.5264L121.714 14.8316V10.5264H117.59V33.6843H121.714V19.0264C122.585 17.8632 124.193 15.9895 125.838 15.4264C127.177 14.9332 128.595 14.6994 130.019 14.7369V10.5264C128.465 10.5266 126.932 10.8867 125.534 11.5796C124.137 12.2725 122.912 13.28 121.951 14.5264Z" fill="#333333"/><path d="M67.2842 14.5264L67.042 14.8316V10.5264H62.918V33.6843H67.042V19.0264C67.9132 17.8632 69.5215 15.9895 71.1659 15.4264C72.5073 14.9334 73.9267 14.6996 75.3518 14.7369V10.5264C73.7982 10.5259 72.2647 10.8856 70.8672 11.5785C69.4697 12.2715 68.2445 13.2794 67.2842 14.5264Z" fill="#333333"/><path d="M8.00054 0C5.87908 0.00139425 3.84491 0.862441 2.34481 2.39401C0.844716 3.92559 0.0013656 6.00245 0 8.16842C0.00181105 9.37292 0.283037 10.5599 0.820647 11.632C1.35826 12.7042 2.13696 13.6311 3.09299 14.3368L14.1607 20.7158C14.7714 21.1934 15.2199 21.8547 15.4431 22.6063C15.6662 23.358 15.6527 24.1622 15.4045 24.9056C15.1563 25.649 14.6858 26.2941 14.0595 26.7502C13.4331 27.2062 12.6824 27.45 11.9132 27.4474H0.0567052V31.6579H11.9132C13.5623 31.6594 15.1695 31.1272 16.5039 30.1377C17.8382 29.1482 18.831 27.7523 19.3396 26.1506C19.8482 24.5489 19.8465 22.8238 19.3346 21.2232C18.8228 19.6226 17.8271 18.2288 16.4908 17.2421L5.41789 10.8632C5.01522 10.5445 4.68929 10.136 4.46502 9.66891C4.24076 9.20184 4.12411 8.68859 4.12399 8.16842C4.12535 7.11915 4.53421 6.11325 5.26091 5.3713C5.98761 4.62936 6.97283 4.21192 8.00054 4.21053H42.508C43.927 2.51742 45.6266 1.09221 47.529 0H8.00054Z" fill="#333333"/><path d="M29.7788 26.3369L26.1188 28.279L25.8919 27.8632L16.582 10.5264H21.2885L28.124 23.2527L29.7788 26.3369Z" fill="#2291FF"/><path d="M38.8789 10.5264L24.5893 40H20.0271L25.8935 27.8632L28.1256 23.2527L34.2755 10.5264H38.8789Z" fill="#2291FF"/><path d="M148.871 10.5264V23.3316C148.871 25.0067 148.219 26.6131 147.059 27.7976C145.899 28.982 144.325 29.6474 142.685 29.6474C141.044 29.6474 139.471 28.982 138.311 27.7976C137.151 26.6131 136.499 25.0067 136.499 23.3316V10.5264H132.375V23.3316C132.375 25.2865 132.908 27.2027 133.915 28.8656C134.921 30.5285 136.362 31.8724 138.074 32.7467C139.787 33.6209 141.704 33.991 143.611 33.8154C145.518 33.6399 147.339 32.9256 148.871 31.7527V33.7H152.995V10.5422L148.871 10.5264Z" fill="#333333"/><path d="M59.8546 0H56.3904C47.4826 0 40.2656 7.55789 40.2656 16.8421C40.2656 26.1263 47.4826 33.6842 56.3904 33.6842H59.8546V29.4737H56.3904C49.7766 29.4737 44.3896 23.8053 44.3896 16.8421C44.3896 9.87895 49.7766 4.21053 56.3904 4.21053H101.094V33.6842H105.218V4.21053H114.497V0H59.8546Z" fill="#333333"/><path d="M94.8398 23.2267C94.6181 24.9764 93.8287 26.5998 92.5976 27.8379C91.3666 29.0759 89.7648 29.8573 88.0479 30.0574C86.3311 30.2574 84.5981 29.8645 83.1255 28.9414C81.6529 28.0183 80.5256 26.6182 79.9234 24.9645C79.3213 23.3108 79.2791 21.4989 79.8034 19.8178C80.3278 18.1367 81.3886 16.6834 82.8165 15.6898C84.2444 14.6962 85.9572 14.2196 87.6814 14.336C89.4056 14.4524 91.042 15.1551 92.3294 16.332L82.2514 22.6477L84.4216 26.2583L94.5666 19.9056L98.1751 17.6635C97.2901 15.4252 95.7698 13.5081 93.8095 12.1585C91.8493 10.809 89.5386 10.0885 87.1744 10.0898C84.8733 10.0896 82.6218 10.7729 80.6945 12.0566C78.7673 13.3403 77.2476 15.1689 76.3207 17.3193C75.3939 19.4697 75.0999 21.8489 75.4748 24.167C75.8496 26.485 76.877 28.6415 78.4317 30.3736C79.9864 32.1057 82.0011 33.3385 84.2302 33.9216C86.4593 34.5047 88.8064 34.4129 90.9854 33.6575C93.1643 32.902 95.0808 31.5155 96.5011 29.6671C97.9215 27.8187 98.7844 25.5882 98.9844 23.2477L94.8398 23.2267Z" fill="#333333"/></g><defs><clipPath id="clip0_1_1098"><rect width="153" height="40" fill="white"/></clipPath></defs></svg>
